<?xml version="1.0"?>
<!DOCTYPE svg PUBLIC "-//W3C//DTD SVG 1.1//EN" "http://www.w3.org/Graphics/SVG/1.1/DTD/svg11.dtd">
<svg width="38.760000000000005mm" height="45.760000000000005mm" viewBox="0 0 38.760000000000005 45.760000000000005" xmlns="http://www.w3.org/2000/svg" version="1.1">
<g id="Sketch" transform="translate(0.380000,45.380000) scale(1,-1)">
<path id="Sketch_w0001"  d="M 2.5 8.499999999999678 L 2.499999999999999 36.50000000000032 A 6 6 0 0 1 8.5 42.5L 29.500000000000718 42.50000000000001 A 6 6 0 0 1 35.5 36.5L 35.5 8.499999999999275 A 6 6 0 0 1 29.5 2.5L 8.49999999999968 2.5 A 6 6 0 0 1 2.5 8.5" stroke="#000000" stroke-width="0.35 px" style="stroke-width:0.35;stroke-miterlimit:4;stroke-dasharray:none;stroke-linecap:square;fill:none;fill-opacity:1;fill-rule: evenodd"/>

<path id="Sketch_w0000"  d="M 0.0 3.999999999999999 A 4 4 0 0 1 4 0L 34.0 0.0 A 4 4 0 0 1 38 4L 38.0 41.0 A 4 4 0 0 1 34 45L 3.9999999999999996 45.0 A 4 4 0 0 1 0 41L 0.0 3.9999999999999996 " stroke="#000000" stroke-width="0.35 px" style="stroke-width:0.35;stroke-miterlimit:4;stroke-dasharray:none;stroke-linecap:square;fill:none;fill-opacity:1;fill-rule: evenodd"/>
<title>b'Sketch'</title>
</g>
</svg>